<?xml version="1.0" standalone="no"?>
<!DOCTYPE svg PUBLIC "-//W3C//DTD SVG 20010904//EN"
 "http://www.w3.org/TR/2001/REC-SVG-20010904/DTD/svg10.dtd">
<svg version="1.0" xmlns="http://www.w3.org/2000/svg"
 width="372.000000pt" height="209.000000pt" viewBox="0 0 372.000000 209.000000"
 preserveAspectRatio="xMidYMid meet">
<metadata>
Created by potrace 1.15, written by Peter Selinger 2001-2017
</metadata>
<g transform="translate(0.000000,209.000000) scale(0.100000,-0.100000)"
fill="#000000" stroke="none">
<path d="M1979 1766 c-81 -29 -135 -78 -168 -151 -38 -86 -54 -238 -26 -249 8
-3 15 -11 15 -18 0 -9 -2 -10 -8 -2 -9 15 -65 45 -127 70 -42 16 -74 19 -190
18 -81 0 -155 -6 -176 -13 -72 -24 -147 -32 -359 -40 -191 -7 -223 -11 -290
-34 -128 -43 -223 -92 -328 -169 -86 -63 -222 -189 -222 -205 0 -12 179 -286
345 -530 l36 -52 72 39 c110 58 174 73 307 73 137 0 271 -25 620 -116 52 -14
133 -35 180 -46 47 -12 101 -26 120 -32 33 -9 84 -17 240 -39 82 -11 204 -3
250 17 50 22 116 78 270 228 74 72 155 148 178 169 24 20 42 39 40 40 -6 5
-167 27 -343 47 -175 20 -183 20 -305 3 -116 -16 -176 -32 -305 -82 -55 -21
-75 -19 -75 8 0 26 85 64 265 116 87 26 435 25 550 -1 60 -14 124 -19 255 -19
172 -1 176 0 235 27 82 39 105 62 105 106 0 41 -31 81 -76 99 -125 47 -168 54
-399 64 -315 12 -452 22 -461 31 -4 4 27 4 69 1 l77 -7 0 156 c0 229 -29 344
-109 424 -72 73 -176 100 -262 69z m273 -139 c9 -47 7 -47 -193 -47 l-189 0 0
35 0 35 189 0 c189 0 189 0 193 -23z m1 -66 c4 0 7 -19 7 -41 l0 -40 -200 0
-200 0 0 33 c0 50 20 55 215 52 94 -1 173 -3 178 -4z m7 -146 l0 -35 -200 0
-200 0 0 35 0 35 200 0 200 0 0 -35z"/>
<path d="M3127 1530 c-63 -20 -136 -71 -233 -162 -62 -59 -242 -198 -256 -198
-5 0 -8 -4 -8 -10 0 -5 23 -10 51 -10 46 0 56 4 107 48 53 45 147 112 158 112
8 0 282 199 319 231 17 16 -79 8 -138 -11z"/>
<path d="M3400 1536 c-44 -12 -130 -52 -140 -65 -3 -3 -41 -33 -85 -66 -44
-33 -82 -62 -85 -65 -10 -10 -95 -67 -110 -73 -8 -4 -37 -23 -65 -42 -27 -20
-58 -41 -67 -48 -10 -6 -18 -15 -18 -19 0 -17 33 -7 64 19 17 14 69 45 116 68
99 48 121 62 215 133 108 83 147 100 259 111 38 3 71 11 73 17 4 12 -67 45
-95 43 -9 0 -37 -6 -62 -13z"/>
<path d="M3384 1411 c-40 -16 -126 -75 -174 -119 -14 -12 -72 -46 -130 -74
-58 -28 -113 -58 -122 -66 -21 -18 -15 -32 14 -32 35 0 145 -59 177 -95 17
-19 36 -35 42 -35 9 0 137 97 159 120 3 3 61 53 130 112 156 132 167 143 151
162 -38 46 -166 60 -247 27z"/>
</g>
</svg>
