<?xml version="1.0" encoding="UTF-8" standalone="no"?>
<!-- Created with Inkscape (http://www.inkscape.org/) -->

<svg
   xmlns:dc="http://purl.org/dc/elements/1.1/"
   xmlns:cc="http://creativecommons.org/ns#"
   xmlns:rdf="http://www.w3.org/1999/02/22-rdf-syntax-ns#"
   xmlns:svg="http://www.w3.org/2000/svg"
   xmlns="http://www.w3.org/2000/svg"
   xmlns:sodipodi="http://sodipodi.sourceforge.net/DTD/sodipodi-0.dtd"
   xmlns:inkscape="http://www.inkscape.org/namespaces/inkscape"
   width="200"
   height="200"
   viewBox="0 0 52.916669 52.916668"
   version="1.1"
   id="svg8"
   inkscape:export-filename="/home/mara7016/Pictures/lingayat-logo.png"
   inkscape:export-xdpi="96"
   inkscape:export-ydpi="96"
   inkscape:version="0.92.4 (fd57863, 2020-04-02)"
   sodipodi:docname="lingayat-logo.svg">
  <defs
     id="defs2" />
  <sodipodi:namedview
     id="base"
     pagecolor="#ffffff"
     bordercolor="#666666"
     borderopacity="1.0"
     inkscape:pageopacity="0.0"
     inkscape:pageshadow="2"
     inkscape:zoom="1.9612069"
     inkscape:cx="112.48606"
     inkscape:cy="108.4219"
     inkscape:document-units="mm"
     inkscape:current-layer="layer1"
     showgrid="false"
     units="px"
     inkscape:lockguides="false"
     showguides="true"
     inkscape:guide-bbox="true"
     inkscape:window-width="1366"
     inkscape:window-height="639"
     inkscape:window-x="0"
     inkscape:window-y="27"
     inkscape:window-maximized="1" />
  <metadata
     id="metadata5">
    <rdf:RDF>
      <cc:Work
         rdf:about="">
        <dc:format>image/svg+xml</dc:format>
        <dc:type
           rdf:resource="http://purl.org/dc/dcmitype/StillImage" />
        <dc:title></dc:title>
      </cc:Work>
    </rdf:RDF>
  </metadata>
  <g
     inkscape:label="Layer 1"
     inkscape:groupmode="layer"
     id="layer1"
     transform="translate(0,-244.08332)">
    <g
       id="g4952">
      <circle
         r="24.395111"
         cy="270.84637"
         cx="26.95023"
         id="path4566-5"
         style="opacity:1;fill:#ffcc00;fill-opacity:1;stroke:#000000;stroke-width:0.28825852;stroke-miterlimit:4;stroke-dasharray:none;stroke-opacity:1" />
      <g
         transform="matrix(1.2720756,0,0,1.2720756,-6.4277883,-73.132567)"
         id="g4890">
        <g
           id="g4644"
           transform="matrix(0.82936974,0,0,0.82574835,4.4712244,43.91412)">
          <g
             id="g4580">
            <rect
               style="opacity:1;fill:#000000;fill-opacity:1;stroke:#000000;stroke-width:0.66256541;stroke-miterlimit:4;stroke-dasharray:none;stroke-opacity:1"
               id="rect4568"
               width="17.858269"
               height="22.832195"
               x="17.385689"
               y="262.9809" />
            <ellipse
               style="opacity:1;fill:#000000;fill-opacity:1;stroke:#000000;stroke-width:0.65990138;stroke-miterlimit:4;stroke-dasharray:none;stroke-opacity:1"
               id="path4570"
               cx="26.314825"
               cy="262.37735"
               rx="8.9304657"
               ry="9.5275488" />
          </g>
          <rect
             y="258.44641"
             x="20.864285"
             height="2.5702381"
             width="10.885714"
             id="rect4582"
             style="opacity:1;fill:#ffffff;fill-opacity:1;stroke:#000000;stroke-width:0.66499996;stroke-miterlimit:4;stroke-dasharray:none;stroke-opacity:1" />
          <rect
             y="261.01666"
             x="20.864285"
             height="2.5702381"
             width="10.885715"
             id="rect4582-3"
             style="opacity:1;fill:#ffffff;fill-opacity:1;stroke:#000000;stroke-width:0.66499996;stroke-miterlimit:4;stroke-dasharray:none;stroke-opacity:1" />
          <rect
             y="263.58691"
             x="20.864286"
             height="2.5702381"
             width="10.885715"
             id="rect4582-3-7"
             style="opacity:1;fill:#ffffff;fill-opacity:1;stroke:#000000;stroke-width:0.66499996;stroke-miterlimit:4;stroke-dasharray:none;stroke-opacity:1" />
        </g>
        <g
           style="fill:#ff6600;fill-opacity:1;stroke:#ffffff;stroke-width:9.83569431;stroke-miterlimit:4;stroke-dasharray:none;stroke-opacity:1"
           id="Flower 2 (1) (1)"
           transform="matrix(0.0351479,0,0,0.03280828,8.6941789,273.02962)">
<g
   style="fill:#ff6600;fill-opacity:1;stroke:#ffffff;stroke-width:9.83569431;stroke-miterlimit:4;stroke-dasharray:none;stroke-opacity:1"
   id="Flower 2 (1) (1) (1)">
<path
   sodipodi:nodetypes="scssscssscssscsssscssscsss"
   inkscape:connector-curvature="0"
   id="path4429"
   d="m 201.28,108.93131 c -0.0858,19.1194 9.15,36.04569 14.14,53.87169 -12.587,-10.252 -24.52132,-22.4946 -39.85,-28.346 -19.01458,-7.25842 -42.74639,-5.39933 -59.056,7.516 -14.84365,11.75446 -13.95361,35.2243 -3.542,49.442 22.28799,30.43562 48.07572,23.40183 79.04,25.265 -17.438,3.597 -35.7655,6.61863 -51.182,15.732 -18.50564,10.9395 -34.24191,25.37325 -30.5384,51.16745 2.72475,18.97737 23.68794,34.70542 41.5524,33.87955 35.21519,-1.62799 45.27223,-26.78696 64.045,-48.982 -5.572,20.53 -16.2321,41.79462 -10.489,63.457 5.29602,19.97605 20.11839,38.90934 46.187,35.227 23.22573,-3.28076 33.75876,-19.2 36.95561,-35.91888 4.57131,-23.90697 -5.41507,-46.17278 -13.94261,-68.62512 12.62,13.047 25.12507,27.25121 41.396,35.537 18.13834,9.23675 39.00251,11.76071 56.48108,0.72053 16.55343,-10.45582 21.77401,-39.62817 13.22222,-55.51583 -8.20149,-15.23686 -26.36422,-22.13184 -43.0853,-24.4787 -13.00473,-1.82526 -26.181,-2.104 -39.186,-3.841 20.618,-3.126 43.90827,-2.58517 60.82,-16.523 15.78128,-13.00617 24.94354,-32.73355 12.85751,-54.95052 -11.37778,-20.91505 -28.3636,-21.2766 -45.05854,-18.93671 -26.24757,3.67874 -41.01743,20.45512 -57.00797,37.11923 6.44,-18.557 11.46955,-38.63682 10.129,-58.429 C 283.82286,83.458998 274.96553,61.759514 243.71634,62.862286 212.88839,63.950193 201.38322,85.925511 201.28,108.93131 Z"
   style="fill:#ff6600;fill-opacity:1;stroke:#ffffff;stroke-width:9.83569431;stroke-miterlimit:4;stroke-dasharray:none;stroke-opacity:1" />

</g>

</g>
        <g
           style="fill:#ff6600;fill-opacity:1;stroke:#ffffff;stroke-width:9.83569431;stroke-miterlimit:4;stroke-dasharray:none;stroke-opacity:1"
           id="Flower 2 (1) (1)-3-2"
           transform="matrix(0.03514455,4.8448886e-4,-4.5224002e-4,0.03280516,26.522146,272.72255)">
          <g
             style="fill:#ff6600;fill-opacity:1;stroke:#ffffff;stroke-width:9.83569431;stroke-miterlimit:4;stroke-dasharray:none;stroke-opacity:1"
             id="Flower 2 (1) (1) (1)-5-9">
            <path
               sodipodi:nodetypes="scssscssscssscsssscssscsss"
               inkscape:connector-curvature="0"
               id="path4429-6-1"
               d="m 201.28,108.93131 c -0.0858,19.1194 9.15,36.04569 14.14,53.87169 -12.587,-10.252 -24.52132,-22.4946 -39.85,-28.346 -19.01458,-7.25842 -42.74639,-5.39933 -59.056,7.516 -14.84365,11.75446 -13.95361,35.2243 -3.542,49.442 22.28799,30.43562 48.07572,23.40183 79.04,25.265 -17.438,3.597 -35.7655,6.61863 -51.182,15.732 -18.50564,10.9395 -34.24191,25.37325 -30.5384,51.16745 2.72475,18.97737 23.68794,34.70542 41.5524,33.87955 35.21519,-1.62799 45.27223,-26.78696 64.045,-48.982 -5.572,20.53 -16.2321,41.79462 -10.489,63.457 5.29602,19.97605 20.11839,38.90934 46.187,35.227 23.22573,-3.28076 33.75876,-19.2 36.95561,-35.91888 4.57131,-23.90697 -5.41507,-46.17278 -13.94261,-68.62512 12.62,13.047 25.12507,27.25121 41.396,35.537 18.13834,9.23675 39.00251,11.76071 56.48108,0.72053 16.55343,-10.45582 21.77401,-39.62817 13.22222,-55.51583 -8.20149,-15.23686 -26.36422,-22.13184 -43.0853,-24.4787 -13.00473,-1.82526 -26.181,-2.104 -39.186,-3.841 20.618,-3.126 43.90827,-2.58517 60.82,-16.523 15.78128,-13.00617 24.94354,-32.73355 12.85751,-54.95052 -11.37778,-20.91505 -28.3636,-21.2766 -45.05854,-18.93671 -26.24757,3.67874 -41.01743,20.45512 -57.00797,37.11923 6.44,-18.557 11.46955,-38.63682 10.129,-58.429 C 283.82286,83.458998 274.96553,61.759514 243.71634,62.862286 212.88839,63.950193 201.38322,85.925511 201.28,108.93131 Z"
               style="fill:#ff6600;fill-opacity:1;stroke:#ffffff;stroke-width:9.83569431;stroke-miterlimit:4;stroke-dasharray:none;stroke-opacity:1" />
          </g>
        </g>
        <g
           style="fill:#ff6600;fill-opacity:1;stroke:#ffffff;stroke-width:9.83569431;stroke-miterlimit:4;stroke-dasharray:none;stroke-opacity:1"
           id="Flower 2 (1) (1)-3"
           transform="matrix(0.03249707,-0.01339085,0.01249949,0.03033391,15.416837,276.78799)">
          <g
             style="fill:#ff6600;fill-opacity:1;stroke:#ffffff;stroke-width:9.83569431;stroke-miterlimit:4;stroke-dasharray:none;stroke-opacity:1"
             id="Flower 2 (1) (1) (1)-5">
            <path
               sodipodi:nodetypes="scssscssscssscsssscssscsss"
               inkscape:connector-curvature="0"
               id="path4429-6"
               d="m 201.28,108.93131 c -0.0858,19.1194 9.15,36.04569 14.14,53.87169 -12.587,-10.252 -24.52132,-22.4946 -39.85,-28.346 -19.01458,-7.25842 -42.74639,-5.39933 -59.056,7.516 -14.84365,11.75446 -13.95361,35.2243 -3.542,49.442 22.28799,30.43562 48.07572,23.40183 79.04,25.265 -17.438,3.597 -35.7655,6.61863 -51.182,15.732 -18.50564,10.9395 -34.24191,25.37325 -30.5384,51.16745 2.72475,18.97737 23.68794,34.70542 41.5524,33.87955 35.21519,-1.62799 45.27223,-26.78696 64.045,-48.982 -5.572,20.53 -16.2321,41.79462 -10.489,63.457 5.29602,19.97605 20.11839,38.90934 46.187,35.227 23.22573,-3.28076 33.75876,-19.2 36.95561,-35.91888 4.57131,-23.90697 -5.41507,-46.17278 -13.94261,-68.62512 12.62,13.047 25.12507,27.25121 41.396,35.537 18.13834,9.23675 39.00251,11.76071 56.48108,0.72053 16.55343,-10.45582 21.77401,-39.62817 13.22222,-55.51583 -8.20149,-15.23686 -26.36422,-22.13184 -43.0853,-24.4787 -13.00473,-1.82526 -26.181,-2.104 -39.186,-3.841 20.618,-3.126 43.90827,-2.58517 60.82,-16.523 15.78128,-13.00617 24.94354,-32.73355 12.85751,-54.95052 -11.37778,-20.91505 -28.3636,-21.2766 -45.05854,-18.93671 -26.24757,3.67874 -41.01743,20.45512 -57.00797,37.11923 6.44,-18.557 11.46955,-38.63682 10.129,-58.429 C 283.82286,83.458998 274.96553,61.759514 243.71634,62.862286 212.88839,63.950193 201.38322,85.925511 201.28,108.93131 Z"
               style="fill:#ff6600;fill-opacity:1;stroke:#ffffff;stroke-width:9.83569431;stroke-miterlimit:4;stroke-dasharray:none;stroke-opacity:1" />
          </g>
        </g>
      </g>
      <text
         id="text4823"
         y="261.51907"
         x="-67.319305"
         style="font-style:normal;font-weight:normal;font-size:10.58333302px;line-height:1.25;font-family:sans-serif;letter-spacing:0px;word-spacing:0px;fill:#000000;fill-opacity:1;stroke:none;stroke-width:0.26458332"
         xml:space="preserve"><tspan
           style="stroke-width:0.26458332"
           y="270.88284"
           x="-67.319305"
           id="tspan4821"
           sodipodi:role="line" /></text>
    </g>
  </g>
</svg>
